<?xml version="1.0" standalone="no"?>
<!DOCTYPE svg PUBLIC "-//W3C//DTD SVG 20010904//EN"
 "http://www.w3.org/TR/2001/REC-SVG-20010904/DTD/svg10.dtd">
<svg version="1.0" xmlns="http://www.w3.org/2000/svg"
 width="512.000000pt" height="512.000000pt" viewBox="0 0 512.000000 512.000000"
 preserveAspectRatio="xMidYMid meet">

<g transform="translate(0.000000,512.000000) scale(0.100000,-0.100000)"
fill="#000000" stroke="none">
<path d="M2331 5110 c-498 -48 -971 -238 -1364 -547 -107 -83 -362 -344 -444
-453 -485 -649 -641 -1458 -428 -2233 137 -500 432 -954 840 -1292 771 -638
1860 -764 2754 -319 259 129 438 254 639 449 227 218 386 436 522 710 160 324
236 605 262 972 39 542 -114 1118 -418 1573 -407 609 -1041 1014 -1757 1121
-153 23 -464 32 -606 19z m579 -259 c747 -117 1385 -583 1723 -1257 330 -660
326 -1434 -13 -2091 -348 -674 -984 -1128 -1735 -1238 -359 -52 -745 -13
-1100 111 -135 47 -378 169 -498 249 -996 664 -1330 1944 -784 3000 364 702
1055 1167 1857 1245 128 13 408 3 550 -19z"/>
<path d="M1810 3804 c-78 -34 -123 -102 -140 -211 -16 -103 -8 -2135 8 -2184
34 -101 114 -161 222 -167 38 -2 84 1 103 7 53 18 112 74 138 133 23 51 24 63
29 369 l5 317 205 196 c113 107 208 192 211 188 11 -13 595 -915 652 -1008 92
-149 155 -195 280 -202 104 -6 160 11 212 63 78 77 79 181 5 322 -22 43 -211
323 -420 622 -209 299 -380 547 -380 550 0 3 147 145 327 316 179 170 339 329
354 353 61 97 56 210 -13 281 -49 51 -101 71 -183 71 -132 0 -70 55 -816 -724
l-434 -453 -5 491 c-5 486 -5 491 -28 541 -47 103 -113 145 -227 144 -40 0
-85 -6 -105 -15z"/>
</g>
</svg>
