<?xml version="1.0" encoding="utf-8"?>
<!-- Generator: Adobe Illustrator 28.1.0, SVG Export Plug-In . SVG Version: 6.00 Build 0)  -->
<svg version="1.1" id="Layer_1" xmlns="http://www.w3.org/2000/svg" xmlns:xlink="http://www.w3.org/1999/xlink" x="0px" y="0px"
	 viewBox="0 0 161 78" style="enable-background:new 0 0 161 78;" xml:space="preserve">
<style type="text/css">
	.st0{fill:#7888FF;}
	.st1{fill:#FFFFFF;}
</style>
<g>
	<g id="logo_base_3_00000140015149146324797720000009328967238890592696_">
		<path class="st0" d="M12.8,19.1c0,0,11.1,3.1,6.6,15.1C19.5,34.2,8.2,30.6,12.8,19.1z"/>
		<path class="st0" d="M2.7,31.5c0,0,10.4-4.7,14.8,7.3C17.5,38.9,6.5,43.3,2.7,31.5z"/>
		<path class="st0" d="M2.9,47.6c0,0,5-10.3,16-3.9C18.9,43.7,13.3,54.1,2.9,47.6z"/>
		<path class="st0" d="M13.3,59.7c0,0-2.9-11.1,9.8-13.3C23.1,46.4,25.5,58,13.3,59.7z"/>
		<path class="st0" d="M29.1,62.3c0,0-9.3-6.7-1.1-16.5C28.1,45.8,37.4,53.1,29.1,62.3z"/>
		<path class="st0" d="M42.9,54.1c0,0-11.4,0.9-11.4-11.9C31.5,42.2,43.4,41.8,42.9,54.1z"/>
		<path class="st0" d="M48.2,39c0,0-8.2,8-16.4-1.8C31.8,37.2,40.6,29.3,48.2,39z"/>
		<path class="st0" d="M42.6,24c0,0-1.1,11.4-13.7,9.1C28.8,33.2,30.5,21.4,42.6,24z"/>
		<path class="st0" d="M28.6,16.2c0,0,6.5,9.5-4.6,15.8C23.9,32,17.7,21.9,28.6,16.2z"/>
	</g>
	<g>
		<g>
			<path class="st1" d="M64,38.3c-1,0-2-0.1-2.9-0.4c-0.9-0.3-1.6-0.7-2.2-1.1l0.8-1.8c0.5,0.4,1.1,0.7,1.9,1
				c0.8,0.3,1.5,0.4,2.3,0.4c0.7,0,1.2-0.1,1.6-0.2c0.4-0.1,0.7-0.3,0.9-0.6c0.2-0.2,0.3-0.5,0.3-0.9c0-0.4-0.1-0.7-0.4-0.9
				c-0.3-0.2-0.6-0.4-1.1-0.6c-0.4-0.1-0.9-0.3-1.5-0.4c-0.5-0.1-1.1-0.3-1.6-0.4c-0.5-0.2-1-0.4-1.5-0.6c-0.5-0.3-0.8-0.6-1.1-1.1
				c-0.3-0.4-0.4-1-0.4-1.7c0-0.7,0.2-1.3,0.6-1.9c0.4-0.6,0.9-1,1.7-1.4c0.8-0.3,1.7-0.5,2.9-0.5c0.8,0,1.5,0.1,2.3,0.3
				c0.8,0.2,1.4,0.5,2,0.8l-0.7,1.8c-0.6-0.3-1.2-0.6-1.8-0.8c-0.6-0.2-1.2-0.2-1.8-0.2c-0.6,0-1.2,0.1-1.6,0.2
				c-0.4,0.2-0.7,0.4-0.9,0.6c-0.2,0.3-0.3,0.6-0.3,0.9c0,0.4,0.1,0.7,0.4,0.9c0.3,0.2,0.6,0.4,1.1,0.6c0.4,0.1,0.9,0.3,1.5,0.4
				c0.5,0.1,1.1,0.3,1.6,0.4c0.5,0.2,1,0.4,1.5,0.6c0.5,0.3,0.8,0.6,1.1,1c0.3,0.4,0.4,1,0.4,1.7c0,0.7-0.2,1.3-0.6,1.9
				c-0.4,0.6-0.9,1-1.7,1.4C66.2,38.1,65.2,38.3,64,38.3z"/>
			<path class="st1" d="M74.3,38.2c-0.7,0-1.4-0.1-1.9-0.4c-0.5-0.2-1-0.6-1.3-1c-0.3-0.4-0.4-0.9-0.4-1.5c0-0.5,0.1-1,0.4-1.5
				c0.3-0.4,0.7-0.8,1.3-1c0.6-0.3,1.4-0.4,2.4-0.4h2.8v1.5h-2.7c-0.8,0-1.3,0.1-1.6,0.4c-0.3,0.3-0.4,0.6-0.4,0.9
				c0,0.4,0.2,0.7,0.5,1c0.3,0.2,0.8,0.4,1.4,0.4c0.6,0,1.1-0.1,1.5-0.4c0.4-0.3,0.8-0.6,1-1.1l0.4,1.4c-0.2,0.6-0.6,1-1.2,1.3
				C75.9,38.1,75.2,38.2,74.3,38.2z M77.4,38.1v-2l-0.1-0.4v-3.5c0-0.7-0.2-1.2-0.6-1.6c-0.4-0.4-1-0.6-1.9-0.6
				c-0.5,0-1.1,0.1-1.6,0.3c-0.5,0.2-1,0.4-1.4,0.7l-0.9-1.7c0.5-0.4,1.2-0.7,1.9-0.9c0.7-0.2,1.5-0.3,2.2-0.3c1.4,0,2.5,0.3,3.3,1
				c0.8,0.7,1.2,1.7,1.2,3.1v5.7H77.4z"/>
			<path class="st1" d="M83.6,26.7c-0.4,0-0.8-0.1-1.1-0.4c-0.3-0.3-0.4-0.6-0.4-1c0-0.4,0.1-0.7,0.4-1c0.3-0.3,0.6-0.4,1.1-0.4
				c0.4,0,0.8,0.1,1.1,0.4c0.3,0.3,0.4,0.6,0.4,1c0,0.4-0.1,0.7-0.4,1C84.4,26.6,84,26.7,83.6,26.7z M82.5,38.1v-9.8h2.3v9.8H82.5z"
				/>
			<path class="st1" d="M93.3,28.2c0.8,0,1.5,0.2,2.1,0.5c0.6,0.3,1.1,0.8,1.4,1.4c0.4,0.6,0.5,1.4,0.5,2.4v5.6h-2.3v-5.3
				c0-0.9-0.2-1.5-0.6-1.9c-0.4-0.4-1-0.6-1.7-0.6c-0.5,0-1,0.1-1.4,0.3c-0.4,0.2-0.7,0.5-1,1c-0.2,0.4-0.3,1-0.3,1.6v4.9h-2.3v-9.8
				h2.2V31l-0.4-0.8c0.3-0.6,0.8-1.1,1.5-1.4C91.7,28.4,92.4,28.2,93.3,28.2z"/>
			<path class="st1" d="M99,30.2v-1.8h6.5v1.8H99z M103.9,38.2c-1.1,0-1.9-0.3-2.5-0.8c-0.6-0.6-0.9-1.4-0.9-2.4v-8.8h2.3v8.7
				c0,0.5,0.1,0.8,0.4,1.1c0.2,0.3,0.6,0.4,1,0.4c0.5,0,0.9-0.1,1.2-0.4l0.7,1.6c-0.3,0.2-0.6,0.4-1,0.5
				C104.7,38.2,104.3,38.2,103.9,38.2z"/>
			<path class="st1" d="M111.1,38.2c-0.8,0-1.6-0.1-2.4-0.3c-0.7-0.2-1.3-0.5-1.8-0.8l0.9-1.7c0.4,0.3,1,0.5,1.6,0.7
				c0.6,0.2,1.2,0.3,1.8,0.3c0.7,0,1.2-0.1,1.5-0.3c0.3-0.2,0.5-0.4,0.5-0.8c0-0.3-0.1-0.5-0.3-0.6c-0.2-0.1-0.5-0.2-0.9-0.3
				c-0.4-0.1-0.7-0.1-1.2-0.2c-0.4-0.1-0.9-0.1-1.3-0.2c-0.4-0.1-0.8-0.3-1.2-0.5c-0.4-0.2-0.6-0.5-0.9-0.8
				c-0.2-0.3-0.3-0.8-0.3-1.4c0-0.6,0.2-1.1,0.5-1.6c0.4-0.5,0.9-0.8,1.5-1.1c0.6-0.3,1.4-0.4,2.3-0.4c0.6,0,1.3,0.1,2,0.2
				c0.7,0.2,1.2,0.4,1.7,0.6l-0.9,1.7c-0.5-0.3-0.9-0.5-1.4-0.6c-0.5-0.1-0.9-0.2-1.4-0.2c-0.7,0-1.2,0.1-1.5,0.3
				c-0.3,0.2-0.5,0.5-0.5,0.8c0,0.3,0.1,0.5,0.3,0.7c0.2,0.1,0.5,0.3,0.9,0.3c0.4,0.1,0.7,0.2,1.2,0.2c0.4,0.1,0.9,0.2,1.3,0.3
				c0.4,0.1,0.8,0.3,1.2,0.4c0.4,0.2,0.6,0.5,0.9,0.8c0.2,0.3,0.3,0.8,0.3,1.3c0,0.6-0.2,1.2-0.5,1.6c-0.4,0.4-0.9,0.8-1.5,1
				C112.8,38.1,112,38.2,111.1,38.2z"/>
			<path class="st1" d="M129.8,28.2c0.8,0,1.5,0.2,2.1,0.5c0.6,0.3,1.1,0.8,1.4,1.4c0.3,0.6,0.5,1.4,0.5,2.4v5.6h-2.3v-5.3
				c0-0.9-0.2-1.5-0.6-1.9c-0.4-0.4-0.9-0.6-1.6-0.6c-0.5,0-0.9,0.1-1.3,0.3c-0.4,0.2-0.7,0.5-0.9,1c-0.2,0.4-0.3,1-0.3,1.6v5h-2.3
				v-5.3c0-0.9-0.2-1.5-0.6-1.9c-0.4-0.4-0.9-0.6-1.6-0.6c-0.5,0-0.9,0.1-1.3,0.3c-0.4,0.2-0.7,0.5-0.9,1c-0.2,0.4-0.3,1-0.3,1.6v5
				h-2.3v-9.8h2.2v2.6l-0.4-0.8c0.3-0.6,0.8-1.1,1.4-1.4c0.6-0.3,1.4-0.5,2.2-0.5c0.9,0,1.7,0.2,2.4,0.7c0.7,0.5,1.1,1.1,1.3,2.1
				l-0.9-0.3c0.3-0.7,0.8-1.3,1.6-1.8C128,28.4,128.8,28.2,129.8,28.2z"/>
			<path class="st1" d="M141.3,38.2c-1.1,0-2-0.2-2.8-0.6c-0.8-0.4-1.4-1-1.9-1.8c-0.4-0.7-0.7-1.6-0.7-2.6c0-1,0.2-1.8,0.6-2.6
				c0.4-0.7,1-1.3,1.8-1.8c0.8-0.4,1.6-0.6,2.6-0.6c1,0,1.8,0.2,2.5,0.6c0.7,0.4,1.3,1,1.8,1.8c0.4,0.8,0.6,1.7,0.6,2.7
				c0,0.1,0,0.2,0,0.3c0,0.1,0,0.2,0,0.3h-8.1v-1.5h6.9l-0.9,0.5c0-0.5-0.1-1-0.3-1.5c-0.2-0.4-0.6-0.8-1-1
				c-0.4-0.2-0.9-0.4-1.5-0.4c-0.5,0-1,0.1-1.5,0.4c-0.4,0.2-0.8,0.6-1,1c-0.2,0.4-0.3,0.9-0.3,1.5v0.4c0,0.6,0.1,1.1,0.4,1.6
				c0.3,0.5,0.6,0.8,1.1,1.1c0.5,0.3,1.1,0.4,1.7,0.4c0.5,0,1-0.1,1.5-0.3c0.4-0.2,0.8-0.5,1.2-0.8l1.2,1.4c-0.5,0.5-1,0.9-1.7,1.2
				C142.9,38.1,142.1,38.2,141.3,38.2z"/>
			<path class="st1" d="M153.6,28.2c0.8,0,1.5,0.2,2.1,0.5c0.6,0.3,1.1,0.8,1.4,1.4c0.4,0.6,0.5,1.4,0.5,2.4v5.6h-2.3v-5.3
				c0-0.9-0.2-1.5-0.6-1.9c-0.4-0.4-1-0.6-1.7-0.6c-0.5,0-1,0.1-1.4,0.3c-0.4,0.2-0.7,0.5-1,1c-0.2,0.4-0.3,1-0.3,1.6v4.9h-2.3v-9.8
				h2.2V31l-0.4-0.8c0.3-0.6,0.8-1.1,1.5-1.4C152,28.4,152.8,28.2,153.6,28.2z"/>
		</g>
		<g>
			<path class="st1" d="M62.6,51.1c-0.5,0-1.1-0.1-1.6-0.3c-0.5-0.2-0.9-0.4-1.1-0.7l0.3-0.6c0.3,0.2,0.6,0.5,1,0.6
				c0.4,0.2,0.9,0.3,1.4,0.3c0.5,0,0.8-0.1,1.1-0.2c0.3-0.1,0.5-0.3,0.6-0.5c0.1-0.2,0.2-0.4,0.2-0.6c0-0.3-0.1-0.5-0.2-0.7
				c-0.2-0.2-0.4-0.3-0.6-0.4c-0.3-0.1-0.6-0.2-0.9-0.3c-0.3-0.1-0.6-0.2-1-0.2c-0.3-0.1-0.6-0.2-0.9-0.3c-0.3-0.1-0.5-0.3-0.6-0.6
				c-0.2-0.2-0.2-0.6-0.2-0.9c0-0.4,0.1-0.7,0.3-1c0.2-0.3,0.5-0.5,0.9-0.7c0.4-0.2,0.9-0.3,1.5-0.3c0.4,0,0.8,0.1,1.2,0.2
				c0.4,0.1,0.7,0.3,1,0.5L64.8,45c-0.3-0.2-0.6-0.4-1-0.5c-0.4-0.1-0.7-0.1-1-0.1c-0.4,0-0.8,0.1-1.1,0.2c-0.3,0.1-0.5,0.3-0.6,0.5
				c-0.1,0.2-0.2,0.4-0.2,0.7c0,0.3,0.1,0.5,0.2,0.7c0.2,0.2,0.4,0.3,0.6,0.4c0.3,0.1,0.6,0.2,0.9,0.3c0.3,0.1,0.6,0.2,1,0.2
				c0.3,0.1,0.6,0.2,0.9,0.3c0.3,0.1,0.5,0.3,0.6,0.6c0.2,0.2,0.2,0.5,0.2,0.9c0,0.4-0.1,0.7-0.3,1c-0.2,0.3-0.5,0.5-0.9,0.7
				C63.7,51,63.2,51.1,62.6,51.1z"/>
			<path class="st1" d="M77.1,51.1v-2.7l0.2,0.5l-3.1-5.1H75l2.7,4.4h-0.4l2.7-4.4h0.8l-3.1,5.1l0.2-0.5v2.7H77.1z"/>
			<path class="st1" d="M92.3,51.1c-0.5,0-1.1-0.1-1.6-0.3c-0.5-0.2-0.9-0.4-1.1-0.7l0.3-0.6c0.3,0.2,0.6,0.5,1,0.6
				c0.4,0.2,0.9,0.3,1.4,0.3c0.5,0,0.8-0.1,1.1-0.2c0.3-0.1,0.5-0.3,0.6-0.5c0.1-0.2,0.2-0.4,0.2-0.6c0-0.3-0.1-0.5-0.2-0.7
				c-0.2-0.2-0.4-0.3-0.6-0.4c-0.3-0.1-0.6-0.2-0.9-0.3c-0.3-0.1-0.6-0.2-1-0.2c-0.3-0.1-0.6-0.2-0.9-0.3c-0.3-0.1-0.5-0.3-0.6-0.6
				c-0.2-0.2-0.2-0.6-0.2-0.9c0-0.4,0.1-0.7,0.3-1c0.2-0.3,0.5-0.5,0.9-0.7c0.4-0.2,0.9-0.3,1.5-0.3c0.4,0,0.8,0.1,1.2,0.2
				c0.4,0.1,0.7,0.3,1,0.5L94.4,45c-0.3-0.2-0.6-0.4-1-0.5c-0.4-0.1-0.7-0.1-1-0.1c-0.4,0-0.8,0.1-1.1,0.2c-0.3,0.1-0.5,0.3-0.6,0.5
				c-0.1,0.2-0.2,0.4-0.2,0.7c0,0.3,0.1,0.5,0.2,0.7c0.2,0.2,0.4,0.3,0.6,0.4c0.3,0.1,0.6,0.2,0.9,0.3c0.3,0.1,0.6,0.2,1,0.2
				c0.3,0.1,0.6,0.2,0.9,0.3c0.3,0.1,0.5,0.3,0.6,0.6c0.2,0.2,0.2,0.5,0.2,0.9c0,0.4-0.1,0.7-0.3,1c-0.2,0.3-0.5,0.5-0.9,0.7
				C93.4,51,92.9,51.1,92.3,51.1z"/>
			<path class="st1" d="M106.4,51.1v-6.6h-2.6v-0.7h5.9v0.7h-2.6v6.6H106.4z"/>
			<path class="st1" d="M120,50.4h4.4v0.7h-5.2v-7.3h5v0.7H120V50.4z M120,47h3.8v0.7H120V47z"/>
			<path class="st1" d="M134.6,51.1v-7.3h0.6l3.3,5.7h-0.3l3.3-5.7h0.6v7.3h-0.7v-6.1h0.2l-3,5.2h-0.4l-3.1-5.2h0.2v6.1H134.6z"/>
			<path class="st1" d="M154.8,51.1c-0.5,0-1.1-0.1-1.6-0.3c-0.5-0.2-0.9-0.4-1.1-0.7l0.3-0.6c0.3,0.2,0.6,0.5,1,0.6
				c0.4,0.2,0.9,0.3,1.4,0.3c0.5,0,0.8-0.1,1.1-0.2c0.3-0.1,0.5-0.3,0.6-0.5c0.1-0.2,0.2-0.4,0.2-0.6c0-0.3-0.1-0.5-0.2-0.7
				c-0.2-0.2-0.4-0.3-0.6-0.4c-0.3-0.1-0.6-0.2-0.9-0.3c-0.3-0.1-0.6-0.2-1-0.2c-0.3-0.1-0.6-0.2-0.9-0.3c-0.3-0.1-0.5-0.3-0.6-0.6
				c-0.2-0.2-0.2-0.6-0.2-0.9c0-0.4,0.1-0.7,0.3-1c0.2-0.3,0.5-0.5,0.9-0.7c0.4-0.2,0.9-0.3,1.5-0.3c0.4,0,0.8,0.1,1.2,0.2
				c0.4,0.1,0.7,0.3,1,0.5L157,45c-0.3-0.2-0.6-0.4-1-0.5c-0.4-0.1-0.7-0.1-1-0.1c-0.4,0-0.8,0.1-1.1,0.2c-0.3,0.1-0.5,0.3-0.6,0.5
				c-0.1,0.2-0.2,0.4-0.2,0.7c0,0.3,0.1,0.5,0.2,0.7c0.2,0.2,0.4,0.3,0.6,0.4c0.3,0.1,0.6,0.2,0.9,0.3c0.3,0.1,0.6,0.2,1,0.2
				c0.3,0.1,0.6,0.2,0.9,0.3c0.3,0.1,0.5,0.3,0.6,0.6c0.2,0.2,0.2,0.5,0.2,0.9c0,0.4-0.1,0.7-0.3,1c-0.2,0.3-0.5,0.5-0.9,0.7
				C156,51,155.5,51.1,154.8,51.1z"/>
		</g>
	</g>
</g>
</svg>
