<?xml version="1.0" standalone="no"?>
<!DOCTYPE svg PUBLIC "-//W3C//DTD SVG 20010904//EN"
 "http://www.w3.org/TR/2001/REC-SVG-20010904/DTD/svg10.dtd">
<svg version="1.0" xmlns="http://www.w3.org/2000/svg"
 width="612.000000pt" height="389.000000pt" viewBox="0 0 612.000000 389.000000"
 preserveAspectRatio="xMidYMid meet">

<g transform="translate(0.000000,389.000000) scale(0.100000,-0.100000)"
fill="#000000" stroke="none">
<path d="M2230 3035 c-20 -24 -4 -64 28 -71 56 -12 62 -16 62 -35 0 -25 -45
-47 -68 -33 -9 6 -19 22 -23 35 -5 21 -7 22 -14 6 -4 -9 -5 -28 -1 -40 4 -19
13 -24 43 -25 50 -2 83 21 83 58 0 32 -9 40 -54 50 -22 4 -31 12 -31 25 0 29
35 31 56 4 l19 -24 0 33 c0 31 -1 32 -44 32 -26 0 -48 -6 -56 -15z"/>
<path d="M2400 3031 c0 -11 -9 -23 -22 -27 l-22 -7 21 -17 c15 -12 19 -24 16
-43 -8 -41 20 -77 54 -71 30 6 43 19 43 47 0 24 -17 21 -31 -5 -11 -21 -12
-21 -25 -3 -17 24 -18 64 -1 69 49 15 53 19 22 25 -21 4 -31 13 -33 29 -4 27
-22 30 -22 3z"/>
<path d="M2936 3025 c-4 -14 -13 -25 -21 -25 -22 0 -18 -18 4 -25 16 -5 19
-12 14 -38 -7 -44 21 -78 59 -70 17 3 28 13 33 30 8 32 -3 43 -19 20 -24 -32
-46 -14 -46 39 0 19 5 24 24 24 35 0 42 18 9 22 -20 2 -29 9 -31 26 -4 29 -18
28 -26 -3z"/>
<path d="M3605 3041 c3 -6 13 -11 21 -11 8 0 14 -7 14 -15 0 -10 -10 -15 -34
-15 -36 0 -50 -11 -59 -49 -11 -43 31 -94 68 -82 6 2 25 3 43 3 17 -1 32 3 32
8 0 6 -4 10 -10 10 -5 0 -10 35 -12 78 l-3 77 -34 3 c-21 2 -31 0 -26 -7z m19
-67 c32 -12 14 -84 -21 -84 -22 0 -37 44 -24 69 12 22 20 25 45 15z"/>
<path d="M2542 2999 c-13 -5 -22 -17 -22 -29 0 -24 25 -27 38 -3 6 10 16 14
26 10 28 -11 17 -26 -26 -34 -46 -9 -60 -32 -37 -59 9 -11 26 -14 68 -10 68 6
61 4 61 16 0 6 -7 10 -14 10 -11 0 -16 14 -18 47 -3 40 -6 48 -28 53 -14 4
-36 3 -48 -1z m56 -86 c-4 -20 -30 -28 -56 -18 -16 6 -15 8 2 21 28 20 58 18
54 -3z"/>
<path d="M3434 3000 c-12 -5 -25 -13 -29 -19 -13 -22 -8 -71 10 -91 22 -24 77
-27 95 -5 18 22 8 26 -27 13 -25 -9 -35 -9 -47 1 -27 23 -18 31 34 31 43 0 50
3 50 19 0 11 -12 29 -26 40 -30 23 -30 23 -60 11z m54 -37 c2 -9 -8 -13 -32
-13 -20 0 -36 4 -36 9 0 22 60 25 68 4z"/>
<path d="M2672 2991 c-11 -7 -11 -9 2 -14 30 -12 63 -127 36 -127 -5 0 -10 5
-10 10 0 6 -9 10 -21 10 -15 0 -20 -5 -17 -21 2 -12 10 -27 20 -32 24 -16 42
4 73 81 15 37 33 71 41 75 23 13 16 27 -15 27 -31 0 -50 -15 -29 -23 10 -3 10
-10 -1 -31 l-15 -27 -12 23 c-8 14 -9 27 -3 33 5 5 9 13 9 17 0 11 -41 10 -58
-1z"/>
<path d="M3040 2990 c0 -5 7 -10 15 -10 11 0 15 -11 15 -42 0 -53 10 -69 41
-68 13 0 39 0 57 0 31 0 42 12 22 25 -5 3 -10 28 -10 56 0 46 -2 49 -25 49
-25 0 -35 -15 -14 -22 6 -2 13 -16 14 -31 2 -20 -3 -32 -20 -43 -34 -22 -45
-10 -45 47 0 46 -2 49 -25 49 -14 0 -25 -4 -25 -10z"/>
<path d="M3220 2991 c0 -5 7 -11 15 -15 17 -6 21 -71 5 -81 -20 -12 -9 -25 20
-25 17 0 30 5 30 10 0 6 -4 10 -10 10 -17 0 -11 56 8 73 31 28 42 21 42 -28 0
-25 -4 -45 -10 -45 -5 0 -10 -4 -10 -10 0 -5 17 -10 38 -10 32 1 35 2 20 13
-11 9 -17 27 -16 54 0 23 -3 46 -6 52 -9 14 -53 14 -62 0 -4 -8 -9 -8 -17 0
-13 13 -47 15 -47 2z"/>
<path d="M3585 2770 c-38 -15 -96 -95 -197 -270 -72 -123 -139 -261 -143 -288
-1 -9 -5 -31 -9 -48 l-8 -32 -107 -6 c-58 -4 -160 -6 -225 -4 l-119 2 -36 36
c-52 52 -96 65 -231 65 -298 -1 -975 -19 -978 -27 -2 -4 -8 -5 -14 -2 -19 12
-362 8 -366 -5 -2 -6 -10 -11 -17 -11 -8 0 -17 -5 -21 -12 -5 -7 -2 -8 7 -3 8
4 4 -2 -8 -14 -12 -11 -29 -21 -38 -21 -9 0 -14 -4 -11 -8 8 -13 -50 -62 -81
-67 -15 -2 -147 -9 -293 -15 -215 -8 -480 -22 -662 -33 l-28 -2 0 -692 c0
-470 3 -693 10 -693 6 0 15 -10 20 -22 8 -22 9 -22 9 5 1 31 8 34 27 9 12 -14
13 -14 8 -1 -4 13 0 16 23 12 65 -10 73 -14 73 -33 0 -11 9 -28 20 -37 11 -10
20 -25 20 -33 0 -9 9 -35 20 -58 11 -22 20 -48 20 -56 0 -8 7 -19 16 -24 15
-8 14 -12 -6 -32 -23 -23 -23 -23 -18 -2 4 12 2 22 -2 22 -4 0 -6 8 -3 18 3
12 -2 18 -16 19 -14 1 -21 -4 -21 -16 0 -18 -18 -36 -57 -59 -29 -16 -34 -15
-27 2 3 9 -3 17 -15 21 -12 3 -19 10 -16 15 3 5 1 11 -5 15 -5 3 -10 1 -10 -5
0 -14 -42 -30 -55 -20 -6 5 -10 -5 -11 -26 -1 -25 2 -34 12 -30 7 3 15 0 17
-7 2 -7 8 -8 13 -4 5 5 1 14 -8 21 -19 14 -14 26 10 26 11 0 13 -9 8 -40 -4
-25 -2 -40 4 -40 5 0 10 -4 10 -10 0 -19 -22 -10 -27 11 -4 16 -8 18 -14 7 -7
-11 -11 -10 -19 2 -8 11 -10 4 -8 -27 1 -34 6 -43 20 -43 10 0 18 -4 18 -10 0
-5 -9 -10 -20 -10 -19 0 -20 -7 -20 -90 l0 -90 2805 0 2806 0 23 27 24 27 40
-27 c34 -24 48 -28 98 -25 l59 3 -77 50 c-43 28 -78 54 -78 59 0 5 16 31 35
57 19 27 35 54 35 59 0 9 92 -34 165 -79 17 -9 65 -36 108 -59 l78 -42 -3 42
c-3 37 -7 44 -43 63 -100 52 -104 56 -94 84 l10 26 -21 -21 -21 -21 -65 34
c-35 19 -64 37 -64 39 0 16 23 45 33 41 7 -2 18 1 24 8 9 10 9 14 -2 19 -11 4
1 38 55 148 38 78 77 146 86 151 13 8 15 5 9 -14 l-8 -24 22 25 c20 23 22 24
35 8 12 -17 14 -17 30 0 14 17 16 84 16 735 l0 717 -497 0 -498 0 -48 44 c-32
30 -60 46 -85 50 -39 6 -581 16 -840 16 l-152 0 -11 28 c-6 15 -26 59 -46 97
-85 169 -103 205 -103 214 0 5 -6 11 -13 14 -7 2 -23 26 -36 53 -38 76 -129
156 -174 153 -7 0 -21 -4 -32 -9z m134 -260 c113 -204 144 -268 138 -284 -5
-13 -28 -16 -139 -17 -175 -2 -309 1 -330 7 -16 5 -16 7 -1 40 9 18 21 34 25
34 5 0 7 4 4 8 -3 5 12 38 32 73 21 35 59 103 85 151 54 99 79 123 109 105 10
-7 45 -59 77 -117z m-2032 -402 c-2 -13 -4 -3 -4 22 0 25 2 35 4 23 2 -13 2
-33 0 -45z m310 10 c-2 -13 -4 -5 -4 17 -1 22 1 32 4 23 2 -10 2 -28 0 -40z
m470 5 c-3 -10 -5 -2 -5 17 0 19 2 27 5 18 2 -10 2 -26 0 -35z m-310 -15 c-3
-7 -5 -2 -5 12 0 14 2 19 5 13 2 -7 2 -19 0 -25z m-312 2 c3 -5 1 -10 -4 -10
-6 0 -11 5 -11 10 0 6 2 10 4 10 3 0 8 -4 11 -10z m-318 -22 c-3 -8 -6 -5 -6
6 -1 11 2 17 5 13 3 -3 4 -12 1 -19z m1474 5 c7 -7 1 -12 -18 -16 -16 -3 -32
-15 -38 -29 -14 -33 -38 -28 -50 10 -8 28 -13 32 -45 31 -19 0 -30 -3 -23 -6
8 -3 5 -12 -11 -28 -13 -13 -26 -30 -29 -37 -7 -20 -19 -3 -23 33 -7 55 7 62
123 57 57 -3 108 -9 114 -15z m269 5 c0 -4 -14 -8 -32 -10 -25 -2 -33 -9 -42
-35 -14 -42 -27 -43 -46 -6 -8 17 -21 28 -27 26 -7 -3 -13 2 -13 10 0 9 6 18
13 21 17 7 147 2 147 -6z m64 -11 c13 -10 16 -20 11 -36 -9 -30 -40 -23 -40 9
0 14 -7 28 -15 32 -11 5 -10 7 6 7 11 1 28 -5 38 -12z m165 -54 c-7 -10 -15
-20 -16 -22 -2 -2 -3 5 -3 17 0 14 6 22 16 22 14 0 15 -3 3 -17z m158 -15 c-3
-8 -6 -5 -6 6 -1 11 2 17 5 13 3 -3 4 -12 1 -19z m-1160 -165 c-2 -27 -3 -5
-3 47 0 52 1 74 3 48 2 -27 2 -69 0 -95z m273 100 c-11 -17 -11 -17 -6 0 3 10
6 24 7 30 0 9 2 9 5 0 3 -7 0 -20 -6 -30z m-93 -615 c-3 -7 -5 -2 -5 12 0 14
2 19 5 13 2 -7 2 -19 0 -25z m810 -20 c-2 -13 -4 -5 -4 17 -1 22 1 32 4 23 2
-10 2 -28 0 -40z m-981 -113 c1 -52 -2 -95 -7 -95 -5 0 -9 46 -9 102 0 127 13
121 16 -7z m-242 60 c-4 -8 -8 -15 -10 -15 -2 0 -4 7 -4 15 0 8 4 15 10 15 5
0 7 -7 4 -15z m413 -7 c-3 -8 -6 -5 -6 6 -1 11 2 17 5 13 3 -3 4 -12 1 -19z
m810 -15 c-3 -10 -5 -4 -5 12 0 17 2 24 5 18 2 -7 2 -21 0 -30z m180 -25 c-3
-7 -5 -2 -5 12 0 14 2 19 5 13 2 -7 2 -19 0 -25z m-1397 -59 c0 -51 -4 -78
-10 -74 -5 3 -10 40 -10 81 0 43 4 74 10 74 6 0 10 -34 10 -81z m407 44 c-3
-10 -5 -4 -5 12 0 17 2 24 5 18 2 -7 2 -21 0 -30z m805 -562 c-5 -15 -7 -1 -6
41 1 35 3 169 5 298 l4 235 2 -276 c2 -152 0 -286 -5 -298z m389 486 c-8 -8
-11 2 -10 34 l1 44 10 -34 c6 -23 6 -37 -1 -44z m-1194 -39 c-2 -18 -4 -6 -4
27 0 33 2 48 4 33 2 -15 2 -42 0 -60z m-167 -150 c0 -83 -2 -149 -4 -147 -6 7
-13 233 -8 267 9 62 12 30 12 -120z m1157 60 c-2 -18 -4 -6 -4 27 0 33 2 48 4
33 2 -15 2 -42 0 -60z m-990 -110 c-2 -24 -4 -5 -4 42 0 47 2 66 4 43 2 -24 2
-62 0 -85z m-350 15 c-2 -16 -4 -5 -4 22 0 28 2 40 4 28 2 -13 2 -35 0 -50z
m10 -80 c-3 -10 -5 -4 -5 12 0 17 2 24 5 18 2 -7 2 -21 0 -30z m340 -90 c-2
-21 -4 -4 -4 37 0 41 2 58 4 38 2 -21 2 -55 0 -75z m1023 -8 c0 -57 -4 -95
-10 -95 -6 0 -10 38 -10 95 0 57 4 95 10 95 6 0 10 -38 10 -95z m-1230 -30 c0
-52 -4 -95 -9 -95 -9 0 -20 178 -12 186 16 15 21 -8 21 -91z m207 -37 c-3 -7
-5 -2 -5 12 0 14 2 19 5 13 2 -7 2 -19 0 -25z m2709 -35 c-18 -35 -45 -70 -46
-60 0 8 51 87 57 87 2 0 -3 -12 -11 -27z m-4407 -38 c-12 -19 -23 -35 -25 -35
-11 0 -2 40 12 54 27 28 34 17 13 -19z m-541 13 c16 -16 15 -39 0 -35 -17 3
-38 30 -32 39 7 11 18 10 32 -4z m4802 -16 c0 -15 -2 -15 -10 -2 -13 20 -13
33 0 25 6 -3 10 -14 10 -23z m-2733 -139 c-2 -21 -4 -4 -4 37 0 41 2 58 4 38
2 -21 2 -55 0 -75z m2237 69 c-6 -4 -17 -24 -25 -45 -22 -62 -59 -79 -45 -21
7 28 65 89 75 79 3 -3 1 -9 -5 -13z m-3557 -62 c-26 -51 -45 -52 -32 -2 8 31
48 78 53 63 2 -6 -8 -34 -21 -61z m3789 23 c-4 -4 -11 -1 -16 7 -16 25 -11 35
7 17 9 -9 13 -20 9 -24z m317 -4 c-10 -17 -25 -36 -33 -42 -12 -10 -13 -9 -4
3 5 8 18 27 27 43 24 37 32 34 10 -4z m-3819 -62 c1 -24 -4 -42 -11 -44 -8 -3
-13 5 -13 21 0 13 -5 37 -10 52 -6 15 -8 34 -5 42 10 26 38 -26 39 -71z m3776
-1 c0 -2 -8 -10 -17 -17 -16 -13 -17 -12 -4 4 13 16 21 21 21 13z m-2760 -53
c-11 -17 -11 -17 -6 0 3 10 6 24 7 30 0 9 2 9 5 0 3 -7 0 -20 -6 -30z m-2277
-10 c-22 -17 -27 -10 -13 17 10 18 14 20 21 9 6 -9 3 -18 -8 -26z m4997 8 c-5
-11 -15 -23 -21 -27 -6 -3 -3 5 6 20 20 30 30 35 15 7z m-5110 -38 c0 -25 -1
-26 -16 -11 -9 9 -13 21 -10 27 13 20 26 11 26 -16z m2356 -22 c-28 -29 -73
-50 -59 -28 4 7 0 8 -11 4 -21 -8 -76 21 -76 40 0 9 10 7 33 -7 42 -26 70 -25
104 4 37 32 44 23 9 -13z m-2292 0 c-3 -23 1 -31 17 -36 15 -5 18 -10 10 -18
-7 -7 -14 -7 -24 1 -8 7 -16 9 -19 6 -3 -3 -9 0 -14 7 -5 8 -3 10 6 4 10 -6
12 -4 7 8 -4 10 -1 17 6 17 8 0 7 4 -3 10 -13 9 -13 11 0 20 8 5 16 10 16 10
1 0 0 -13 -2 -29z m131 8 c-4 -5 -2 -9 4 -9 5 0 12 5 14 10 3 6 4 5 3 -2 -5
-23 -36 -21 -36 2 0 12 4 18 10 15 6 -4 8 -11 5 -16z m3441 -10 c7 -11 69 -8
109 6 18 6 18 5 -3 -13 -17 -16 -31 -19 -60 -15 -35 6 -89 33 -65 33 7 0 15
-5 19 -11z m-3610 -11 c4 -5 -7 -8 -24 -8 -18 0 -32 4 -32 8 0 10 46 10 56 0z
m102 -23 c-2 -2 -14 -2 -26 2 -18 4 -20 8 -11 19 9 11 14 11 26 -2 9 -8 14
-17 11 -19z m-108 -6 c0 -4 -9 -7 -19 -6 -11 0 -18 4 -16 7 6 9 35 8 35 -1z
m-83 -31 c-3 -8 -6 -5 -6 6 -1 11 2 17 5 13 3 -3 4 -12 1 -19z m73 2 c5 8 9 7
13 -4 4 -11 1 -16 -12 -16 -10 0 -22 -7 -25 -16 -4 -9 -9 -15 -12 -12 -2 3 1
18 8 33 7 15 14 22 16 15 3 -9 6 -10 12 0z m210 -30 c0 -5 -5 -10 -11 -10 -5
0 -7 5 -4 10 3 6 8 10 11 10 2 0 4 -4 4 -10z m-295 -30 c3 -5 1 -10 -4 -10 -6
0 -11 5 -11 10 0 6 2 10 4 10 3 0 8 -4 11 -10z m287 -15 c3 -13 1 -22 -3 -19
-9 5 -13 44 -5 44 2 0 6 -11 8 -25z m53 5 c3 -5 1 -10 -4 -10 -6 0 -11 5 -11
10 0 6 2 10 4 10 3 0 8 -4 11 -10z m-124 -17 c13 -16 12 -17 -3 -4 -10 7 -18
15 -18 17 0 8 8 3 21 -13z m4090 -10 c-12 -20 -14 -14 -5 12 4 9 9 14 11 11 3
-2 0 -13 -6 -23z m-3951 -3 c-13 -24 -14 -24 -31 -3 -12 15 -12 16 3 10 10 -3
20 -2 23 3 12 19 16 10 5 -10z m-18 -62 c-7 -7 -12 -8 -12 -2 0 14 12 26 19
19 2 -3 -1 -11 -7 -17z m-302 2 c0 -5 -2 -10 -4 -10 -3 0 -8 5 -11 10 -3 6 -1
10 4 10 6 0 11 -4 11 -10z"/>
<path d="M110 596 c0 -7 6 -26 14 -40 12 -23 14 -24 20 -9 6 15 9 15 17 3 8
-11 9 -8 3 10 -9 34 -13 37 -24 20 -8 -12 -10 -10 -10 8 0 12 -4 22 -10 22 -5
0 -10 -6 -10 -14z"/>
<path d="M70 529 c0 -5 5 -7 10 -4 6 3 10 8 10 11 0 2 -4 4 -10 4 -5 0 -10 -5
-10 -11z"/>
<path d="M74 501 c4 -5 1 -11 -6 -13 -8 -3 -5 -12 10 -28 12 -13 25 -20 29
-16 4 4 1 11 -6 15 -8 5 -11 17 -6 30 5 15 2 21 -10 21 -9 0 -14 -4 -11 -9z"/>
<path d="M0 456 c0 -22 3 -27 11 -19 8 8 8 16 0 30 -9 16 -10 14 -11 -11z"/>
<path d="M205 450 c3 -5 8 -10 11 -10 2 0 4 5 4 10 0 6 -5 10 -11 10 -5 0 -7
-4 -4 -10z"/>
<path d="M145 412 c4 -13 1 -29 -5 -37 -10 -12 -9 -15 5 -15 9 0 19 9 22 20 3
11 9 17 14 14 14 -9 10 6 -6 22 -12 12 -15 12 -15 2 0 -10 -3 -9 -11 2 -8 12
-9 10 -4 -8z"/>
<path d="M10 403 c-13 -15 -12 -16 4 -10 10 4 20 7 22 7 2 0 4 5 4 10 0 15
-13 12 -30 -7z"/>
<path d="M5940 270 c-13 -8 -12 -10 3 -10 9 0 17 5 17 10 0 12 -1 12 -20 0z"/>
</g>
</svg>
