<?xml version="1.0" standalone="no"?>
<!DOCTYPE svg PUBLIC "-//W3C//DTD SVG 20010904//EN"
 "http://www.w3.org/TR/2001/REC-SVG-20010904/DTD/svg10.dtd">
<svg version="1.0" xmlns="http://www.w3.org/2000/svg"
 width="1024.000000pt" height="1024.000000pt" viewBox="0 0 1024.000000 1024.000000"
 preserveAspectRatio="xMidYMid meet">

<g transform="translate(0.000000,1024.000000) scale(0.100000,-0.100000)"
fill="#000000" stroke="none">
<path d="M1502 6350 c-68 -35 -115 -82 -146 -149 -21 -46 -21 -50 -21 -1046
l0 -1000 21 -46 c30 -64 88 -125 148 -157 l51 -27 980 -3 c896 -2 984 -1 1033
15 71 22 151 95 183 165 l24 53 3 979 c3 1091 6 1037 -66 1131 -26 34 -57 60
-101 82 l-63 33 -992 0 -993 0 -61 -30z m1252 -582 c9 -12 16 -29 16 -38 0 -9
-22 -87 -49 -175 -27 -88 -93 -304 -146 -480 -168 -556 -164 -544 -191 -561
-31 -21 -69 -12 -91 22 -16 24 -15 31 25 162 219 727 323 1057 338 1073 24 27
78 25 98 -3z m-557 -170 c47 -44 38 -59 -164 -255 l-188 -182 178 -179 c124
-125 177 -185 177 -201 0 -53 -43 -86 -90 -69 -14 4 -117 100 -228 211 -181
182 -202 207 -202 236 0 30 20 53 201 230 111 108 213 204 228 213 35 24 60
22 88 -4z m1025 -196 c175 -174 218 -223 218 -244 0 -21 -43 -69 -209 -238
-184 -185 -214 -211 -242 -212 -22 -1 -38 6 -51 22 -39 48 -29 62 159 252
l178 178 -183 183 c-195 195 -206 213 -162 257 45 45 60 35 292 -198z"/>
<path d="M4402 6236 c-193 -63 -276 -294 -155 -436 45 -52 106 -83 229 -114
143 -36 185 -53 221 -88 29 -28 33 -38 33 -85 0 -44 -5 -58 -31 -88 -31 -35
-104 -65 -158 -65 -82 0 -172 61 -193 131 l-11 39 -84 0 c-80 0 -83 -1 -83
-23 0 -83 80 -194 173 -240 183 -89 441 -26 519 127 26 51 36 167 18 220 -15
48 -61 100 -114 131 -23 13 -106 42 -185 64 -157 43 -187 59 -214 114 -46 93
37 197 158 197 84 0 169 -56 181 -119 l7 -31 84 0 85 0 -7 33 c-20 93 -90 178
-183 220 -60 27 -224 34 -290 13z"/>
<path d="M6580 6070 l0 -100 -55 0 -55 0 0 -65 0 -64 55 2 55 3 0 -225 c0
-125 5 -243 10 -263 14 -48 55 -97 97 -114 33 -14 169 -19 211 -8 20 6 22 12
22 75 l0 69 -27 -7 c-51 -15 -112 -9 -133 12 -18 19 -19 35 -20 239 l-1 219
80 -2 81 -2 0 65 0 66 -82 0 -83 0 2 100 3 100 -80 0 -80 0 0 -100z"/>
<path d="M6005 5961 c-40 -18 -73 -48 -93 -86 -9 -17 -11 -10 -12 38 l0 57
-75 0 -75 0 0 -365 0 -365 80 0 80 0 0 241 c0 230 1 243 22 281 61 108 208
110 266 5 15 -27 17 -67 20 -279 l3 -248 80 0 80 0 -3 273 c-3 262 -4 274 -27
325 -28 61 -84 114 -140 130 -59 18 -160 15 -206 -7z"/>
<path d="M7197 5966 c-70 -26 -113 -62 -141 -117 -14 -29 -26 -66 -26 -81 l0
-28 80 0 c73 0 80 2 80 20 0 31 51 80 93 89 53 12 107 -3 140 -39 22 -24 27
-40 27 -79 l0 -50 -52 -5 c-29 -3 -86 -8 -126 -11 -102 -9 -167 -30 -212 -71
-49 -44 -63 -87 -58 -174 3 -59 8 -75 34 -107 92 -114 274 -123 378 -19 l43
43 9 -46 9 -46 88 -3 87 -3 0 59 c0 51 -3 60 -20 65 -19 5 -20 14 -20 204 0
266 -17 321 -118 380 -42 25 -58 28 -152 31 -72 1 -117 -2 -143 -12z m253
-456 c0 -52 -4 -64 -30 -94 -40 -45 -87 -66 -150 -66 -44 0 -56 4 -81 29 -55
55 -33 137 44 165 59 21 73 24 150 25 l67 1 0 -60z"/>
<path d="M4949 5923 c163 -408 271 -685 271 -695 0 -28 -62 -118 -90 -133 -16
-8 -52 -15 -80 -15 l-50 0 0 -65 0 -65 71 0 c40 0 90 5 111 12 51 15 129 85
152 135 9 21 86 225 170 453 l153 415 -80 3 c-44 2 -81 1 -84 -1 -2 -3 -44
-117 -94 -253 -49 -137 -92 -256 -95 -264 -3 -8 -49 104 -103 250 l-98 265
-86 3 -87 3 19 -48z"/>
<path d="M7846 5789 l126 -180 -37 -52 c-20 -29 -78 -112 -130 -184 l-95 -133
93 0 93 0 78 115 c43 63 82 115 85 115 4 0 42 -51 85 -114 l78 -115 94 -3 c72
-2 93 0 89 10 -2 6 -58 85 -123 175 -65 89 -121 168 -126 174 -4 8 39 79 113
188 67 96 121 178 121 180 0 3 -40 5 -89 5 l-89 0 -72 -115 c-40 -63 -75 -115
-79 -115 -3 0 -40 52 -81 115 l-75 115 -92 0 -92 0 125 -181z"/>
<path d="M4410 5066 c-139 -40 -218 -127 -228 -251 -9 -118 30 -196 125 -248
28 -14 109 -42 182 -62 149 -39 180 -53 211 -92 18 -23 21 -37 18 -82 -4 -47
-10 -59 -41 -87 -105 -96 -284 -62 -342 67 l-18 39 -84 0 c-76 0 -84 -2 -79
-17 2 -10 10 -37 17 -60 20 -70 76 -134 153 -173 62 -32 77 -35 171 -38 85 -4
114 -1 167 17 135 45 206 131 216 260 4 59 1 77 -21 124 -41 90 -120 135 -312
179 -49 11 -107 29 -128 40 -99 50 -101 179 -5 238 40 24 141 27 191 6 38 -15
84 -66 93 -102 6 -23 10 -24 89 -24 l82 0 -7 39 c-16 91 -92 175 -190 212 -68
26 -197 34 -260 15z"/>
<path d="M5308 4810 c-42 -12 -95 -48 -117 -78 l-20 -27 -2 38 c-1 20 -2 42
-3 48 -1 7 -31 11 -79 12 l-77 2 0 -507 0 -508 80 0 80 0 0 197 0 197 35 -41
c19 -23 56 -51 81 -63 39 -19 57 -22 127 -18 92 5 127 19 192 79 112 103 143
334 68 501 -32 71 -103 139 -170 162 -49 17 -149 20 -195 6z m126 -134 c41
-17 90 -75 105 -125 20 -68 14 -179 -13 -236 -64 -136 -211 -167 -303 -62 -42
48 -58 98 -57 187 0 77 24 151 62 194 44 49 141 69 206 42z"/>
<path d="M6030 4811 c-104 -32 -167 -98 -185 -194 l-7 -37 76 0 c42 0 79 0 84
0 4 0 10 13 14 28 4 15 19 39 34 53 22 20 35 24 90 24 58 0 66 -3 95 -32 27
-26 33 -41 37 -86 l4 -55 -108 -7 c-60 -4 -131 -11 -159 -16 -122 -23 -186
-84 -193 -189 -5 -71 10 -120 51 -167 46 -52 98 -73 186 -73 89 0 142 22 195
80 l35 39 7 -55 6 -54 89 0 89 0 0 59 c0 49 -3 59 -19 64 -18 4 -20 18 -24
218 -2 134 -9 229 -17 254 -18 59 -84 119 -149 139 -56 17 -186 20 -231 7z
m240 -465 c0 -67 -27 -110 -90 -144 -117 -62 -250 22 -196 125 26 51 81 70
204 72 l82 1 0 -54z"/>
<path d="M6782 4802 c-150 -54 -240 -205 -230 -385 7 -116 37 -188 107 -258
79 -79 143 -102 271 -97 112 4 168 27 231 95 40 44 55 72 69 130 l8 32 -80 3
c-78 3 -81 2 -90 -22 -15 -41 -69 -90 -112 -101 -87 -24 -168 18 -212 108 -55
111 -32 271 48 338 84 71 220 48 265 -47 20 -40 41 -48 124 -48 57 0 59 7 33
83 -20 59 -89 131 -152 160 -67 30 -208 34 -280 9z"/>
<path d="M7555 4807 c-129 -43 -212 -147 -236 -296 -29 -173 45 -341 183 -416
46 -25 66 -30 150 -33 77 -3 108 0 149 14 66 24 143 92 175 155 l24 49 -80 0
c-79 0 -81 -1 -111 -34 -76 -87 -215 -83 -282 6 -27 37 -47 89 -47 124 l0 24
261 0 262 0 -5 78 c-10 142 -75 255 -182 309 -41 21 -68 27 -136 30 -52 2
-101 -2 -125 -10z m179 -131 c47 -20 106 -107 106 -157 0 -5 -81 -9 -179 -9
l-180 0 8 28 c36 124 139 182 245 138z"/>
</g>
</svg>
